{
 "cells": [
  {
   "cell_type": "code",
   "execution_count": 1,
   "metadata": {},
   "outputs": [],
   "source": [
    "import glob\n",
    "import json\n",
    "import re\n",
    "import os\n",
    "from os import path\n"
   ]
  },
  {
   "cell_type": "code",
   "execution_count": 2,
   "metadata": {},
   "outputs": [],
   "source": [
    "def clean_images(basepath):\n",
    "    count = 0\n",
    "    images = glob.glob(f'{basepath}/**/*.jpg')\n",
    "    for image in images:\n",
    "        os.remove(image)\n",
    "        count += 1\n",
    "    print(\"Cleaned \", count, \" images.\")\n"
   ]
  },
  {
   "cell_type": "code",
   "execution_count": 3,
   "metadata": {},
   "outputs": [
    {
     "name": "stdout",
     "output_type": "stream",
     "text": [
      "Cleaned  252  images.\n",
      "Cleaned  108  images.\n",
      "Cleaned  132  images.\n"
     ]
    }
   ],
   "source": [
    "clean_images(\"train\")\n",
    "clean_images(\"test\")\n",
    "clean_images(\"validation\")"
   ]
  },
  {
   "cell_type": "code",
   "execution_count": 4,
   "metadata": {},
   "outputs": [],
   "source": [
    "def process_movie(basepath, moviePath, label, split):\n",
    "    if path.exists(f'{basepath}/{moviePath}'):\n",
    "        print(\"Processing movie, \", moviePath, \" with label, \", label, \" and split, \", split)\n",
    "        movie = re.sub(r'(\\.mp4$)', '', moviePath)\n",
    "        !ffmpeg -i {basepath}/{moviePath} -r 1/1 {split}/{label}/{movie}%08d.jpg\n",
    "        return 1\n",
    "    return 0"
   ]
  },
  {
   "cell_type": "code",
   "execution_count": 5,
   "metadata": {
    "scrolled": true
   },
   "outputs": [
    {
     "name": "stdout",
     "output_type": "stream",
     "text": [
      "found metadata,  G:/deepfake\\dfdc_train_part_01\\dfdc_train_part_1\\metadata.json\n",
      "Processing movie,  zumqqvixhu.mp4  with label,  FAKE  and split,  test\n",
      "Processing movie,  hntguogkqd.mp4  with label,  REAL  and split,  test\n"
     ]
    },
    {
     "name": "stderr",
     "output_type": "stream",
     "text": [
      "ffmpeg version git-2020-02-13-6d37ca8 Copyright (c) 2000-2020 the FFmpeg developers\n",
      "  built with gcc 9.2.1 (GCC) 20200122\n",
      "  configuration: --enable-gpl --enable-version3 --enable-sdl2 --enable-fontconfig --enable-gnutls --enable-iconv --enable-libass --enable-libdav1d --enable-libbluray --enable-libfreetype --enable-libmp3lame --enable-libopencore-amrnb --enable-libopencore-amrwb --enable-libopenjpeg --enable-libopus --enable-libshine --enable-libsnappy --enable-libsoxr --enable-libtheora --enable-libtwolame --enable-libvpx --enable-libwavpack --enable-libwebp --enable-libx264 --enable-libx265 --enable-libxml2 --enable-libzimg --enable-lzma --enable-zlib --enable-gmp --enable-libvidstab --enable-libvorbis --enable-libvo-amrwbenc --enable-libmysofa --enable-libspeex --enable-libxvid --enable-libaom --enable-libmfx --enable-ffnvcodec --enable-cuvid --enable-d3d11va --enable-nvenc --enable-nvdec --enable-dxva2 --enable-avisynth --enable-libopenmpt --enable-amf\n",
      "  libavutil      56. 41.100 / 56. 41.100\n",
      "  libavcodec     58. 68.102 / 58. 68.102\n",
      "  libavformat    58. 38.100 / 58. 38.100\n",
      "  libavdevice    58.  9.103 / 58.  9.103\n",
      "  libavfilter     7. 75.100 /  7. 75.100\n",
      "  libswscale      5.  6.100 /  5.  6.100\n",
      "  libswresample   3.  6.100 /  3.  6.100\n",
      "  libpostproc    55.  6.100 / 55.  6.100\n",
      "Input #0, mov,mp4,m4a,3gp,3g2,mj2, from 'G:/deepfake\\dfdc_train_part_01\\dfdc_train_part_1\\/zumqqvixhu.mp4':\n",
      "  Metadata:\n",
      "    major_brand     : isom\n",
      "    minor_version   : 512\n",
      "    compatible_brands: isomiso2avc1mp41\n",
      "    encoder         : Lavf57.71.100\n",
      "  Duration: 00:00:10.02, start: 0.000000, bitrate: 5446 kb/s\n",
      "    Stream #0:0(und): Video: h264 (High) (avc1 / 0x31637661), yuv420p, 1920x1080 [SAR 1:1 DAR 16:9], 5375 kb/s, 29.88 fps, 29.88 tbr, 298799 tbn, 59.76 tbc (default)\n",
      "    Metadata:\n",
      "      handler_name    : VideoHandler\n",
      "    Stream #0:1(und): Audio: aac (LC) (mp4a / 0x6134706D), 48000 Hz, mono, fltp, 69 kb/s (default)\n",
      "    Metadata:\n",
      "      handler_name    : SoundHandler\n",
      "Stream mapping:\n",
      "  Stream #0:0 -> #0:0 (h264 (native) -> mjpeg (native))\n",
      "Press [q] to stop, [?] for help\n",
      "[swscaler @ 000002434a2a6900] deprecated pixel format used, make sure you did set range correctly\n",
      "Output #0, image2, to 'test/FAKE/zumqqvixhu%08d.jpg':\n",
      "  Metadata:\n",
      "    major_brand     : isom\n",
      "    minor_version   : 512\n",
      "    compatible_brands: isomiso2avc1mp41\n",
      "    encoder         : Lavf58.38.100\n",
      "    Stream #0:0(und): Video: mjpeg, yuvj420p(pc), 1920x1080 [SAR 1:1 DAR 16:9], q=2-31, 200 kb/s, 1 fps, 1 tbn, 1 tbc (default)\n",
      "    Metadata:\n",
      "      handler_name    : VideoHandler\n",
      "      encoder         : Lavc58.68.102 mjpeg\n",
      "    Side data:\n",
      "      cpb: bitrate max/min/avg: 0/0/200000 buffer size: 0 vbv_delay: N/A\n",
      "frame=    2 fps=0.0 q=2.7 size=N/A time=00:00:02.00 bitrate=N/A dup=0 drop=22 speed=3.89x    \n",
      "frame=    3 fps=3.0 q=1.6 size=N/A time=00:00:03.00 bitrate=N/A dup=0 drop=50 speed=2.95x    \n",
      "frame=    4 fps=2.6 q=1.6 size=N/A time=00:00:04.00 bitrate=N/A dup=0 drop=79 speed=2.63x    \n",
      "frame=    6 fps=3.0 q=1.7 size=N/A time=00:00:06.00 bitrate=N/A dup=0 drop=111 speed=2.96x    \n",
      "frame=    7 fps=2.7 q=2.8 size=N/A time=00:00:07.00 bitrate=N/A dup=0 drop=140 speed=2.73x    \n",
      "frame=    8 fps=2.6 q=4.1 size=N/A time=00:00:08.00 bitrate=N/A dup=0 drop=173 speed=2.58x    \n",
      "frame=    9 fps=2.5 q=5.7 size=N/A time=00:00:09.00 bitrate=N/A dup=0 drop=204 speed= 2.5x    \n",
      "frame=   10 fps=2.4 q=7.6 size=N/A time=00:00:10.00 bitrate=N/A dup=0 drop=233 speed=2.43x    \n",
      "frame=   11 fps=2.4 q=9.7 size=N/A time=00:00:11.00 bitrate=N/A dup=0 drop=267 speed=2.37x    \n",
      "frame=   12 fps=2.4 q=12.3 Lsize=N/A time=00:00:12.00 bitrate=N/A dup=0 drop=287 speed=2.45x    \n",
      "video:630kB audio:0kB subtitle:0kB other streams:0kB global headers:0kB muxing overhead: unknown\n"
     ]
    },
    {
     "name": "stdout",
     "output_type": "stream",
     "text": [
      "Skipping because we need balanced fake and real videos\n",
      "Skipping because we need balanced fake and real videos\n",
      "Skipping because we need balanced fake and real videos\n",
      "Skipping because we need balanced fake and real videos\n",
      "Skipping because we need balanced fake and real videos\n",
      "Skipping because we need balanced fake and real videos\n",
      "Skipping because we need balanced fake and real videos\n",
      "Skipping because we need balanced fake and real videos\n",
      "Skipping because we need balanced fake and real videos\n",
      "Skipping because we need balanced fake and real videos\n",
      "Skipping because we need balanced fake and real videos\n",
      "Skipping because we need balanced fake and real videos\n",
      "Skipping because we need balanced fake and real videos\n",
      "Skipping because we need balanced fake and real videos\n",
      "Skipping because we need balanced fake and real videos\n",
      "Skipping because we need balanced fake and real videos\n",
      "Skipping because we need balanced fake and real videos\n",
      "Processing movie,  ooafcxxfrs.mp4  with label,  REAL  and split,  train\n"
     ]
    },
    {
     "name": "stderr",
     "output_type": "stream",
     "text": [
      "ffmpeg version git-2020-02-13-6d37ca8 Copyright (c) 2000-2020 the FFmpeg developers\n",
      "  built with gcc 9.2.1 (GCC) 20200122\n",
      "  configuration: --enable-gpl --enable-version3 --enable-sdl2 --enable-fontconfig --enable-gnutls --enable-iconv --enable-libass --enable-libdav1d --enable-libbluray --enable-libfreetype --enable-libmp3lame --enable-libopencore-amrnb --enable-libopencore-amrwb --enable-libopenjpeg --enable-libopus --enable-libshine --enable-libsnappy --enable-libsoxr --enable-libtheora --enable-libtwolame --enable-libvpx --enable-libwavpack --enable-libwebp --enable-libx264 --enable-libx265 --enable-libxml2 --enable-libzimg --enable-lzma --enable-zlib --enable-gmp --enable-libvidstab --enable-libvorbis --enable-libvo-amrwbenc --enable-libmysofa --enable-libspeex --enable-libxvid --enable-libaom --enable-libmfx --enable-ffnvcodec --enable-cuvid --enable-d3d11va --enable-nvenc --enable-nvdec --enable-dxva2 --enable-avisynth --enable-libopenmpt --enable-amf\n",
      "  libavutil      56. 41.100 / 56. 41.100\n",
      "  libavcodec     58. 68.102 / 58. 68.102\n",
      "  libavformat    58. 38.100 / 58. 38.100\n",
      "  libavdevice    58.  9.103 / 58.  9.103\n",
      "  libavfilter     7. 75.100 /  7. 75.100\n",
      "  libswscale      5.  6.100 /  5.  6.100\n",
      "  libswresample   3.  6.100 /  3.  6.100\n",
      "  libpostproc    55.  6.100 / 55.  6.100\n",
      "Input #0, mov,mp4,m4a,3gp,3g2,mj2, from 'G:/deepfake\\dfdc_train_part_01\\dfdc_train_part_1\\/hntguogkqd.mp4':\n",
      "  Metadata:\n",
      "    major_brand     : isom\n",
      "    minor_version   : 512\n",
      "    compatible_brands: isomiso2avc1mp41\n",
      "    encoder         : Lavf57.71.100\n",
      "  Duration: 00:00:10.02, start: 0.000000, bitrate: 5431 kb/s\n",
      "    Stream #0:0(und): Video: h264 (High) (avc1 / 0x31637661), yuv420p, 1920x1080 [SAR 1:1 DAR 16:9], 5360 kb/s, 29.88 fps, 29.88 tbr, 298799 tbn, 59.76 tbc (default)\n",
      "    Metadata:\n",
      "      handler_name    : VideoHandler\n",
      "    Stream #0:1(und): Audio: aac (LC) (mp4a / 0x6134706D), 48000 Hz, mono, fltp, 69 kb/s (default)\n",
      "    Metadata:\n",
      "      handler_name    : SoundHandler\n",
      "Stream mapping:\n",
      "  Stream #0:0 -> #0:0 (h264 (native) -> mjpeg (native))\n",
      "Press [q] to stop, [?] for help\n",
      "[swscaler @ 000001bbf60dd440] deprecated pixel format used, make sure you did set range correctly\n",
      "Output #0, image2, to 'test/REAL/hntguogkqd%08d.jpg':\n",
      "  Metadata:\n",
      "    major_brand     : isom\n",
      "    minor_version   : 512\n",
      "    compatible_brands: isomiso2avc1mp41\n",
      "    encoder         : Lavf58.38.100\n",
      "    Stream #0:0(und): Video: mjpeg, yuvj420p(pc), 1920x1080 [SAR 1:1 DAR 16:9], q=2-31, 200 kb/s, 1 fps, 1 tbn, 1 tbc (default)\n",
      "    Metadata:\n",
      "      handler_name    : VideoHandler\n",
      "      encoder         : Lavc58.68.102 mjpeg\n",
      "    Side data:\n",
      "      cpb: bitrate max/min/avg: 0/0/200000 buffer size: 0 vbv_delay: N/A\n",
      "frame=    2 fps=0.0 q=2.7 size=N/A time=00:00:02.00 bitrate=N/A dup=0 drop=21 speed= 3.9x    \n",
      "frame=    3 fps=2.9 q=1.6 size=N/A time=00:00:03.00 bitrate=N/A dup=0 drop=51 speed=2.93x    \n",
      "frame=    5 fps=3.3 q=1.6 size=N/A time=00:00:05.00 bitrate=N/A dup=0 drop=83 speed=3.28x    \n",
      "frame=    6 fps=3.0 q=1.8 size=N/A time=00:00:06.00 bitrate=N/A dup=0 drop=116 speed=2.96x    \n",
      "frame=    7 fps=2.8 q=2.9 size=N/A time=00:00:07.00 bitrate=N/A dup=0 drop=146 speed=2.76x    \n",
      "frame=    8 fps=2.6 q=4.2 size=N/A time=00:00:08.00 bitrate=N/A dup=0 drop=176 speed=2.63x    \n",
      "frame=    9 fps=2.5 q=6.0 size=N/A time=00:00:09.00 bitrate=N/A dup=0 drop=207 speed=2.53x    \n",
      "frame=   10 fps=2.5 q=8.2 size=N/A time=00:00:10.00 bitrate=N/A dup=0 drop=234 speed=2.47x    \n",
      "frame=   11 fps=2.4 q=10.7 size=N/A time=00:00:11.00 bitrate=N/A dup=0 drop=263 speed=2.41x    \n",
      "frame=   12 fps=2.4 q=13.4 Lsize=N/A time=00:00:12.00 bitrate=N/A dup=0 drop=287 speed=2.45x    \n",
      "video:636kB audio:0kB subtitle:0kB other streams:0kB global headers:0kB muxing overhead: unknown\n"
     ]
    },
    {
     "name": "stdout",
     "output_type": "stream",
     "text": [
      "Processing movie,  gshruegrcb.mp4  with label,  FAKE  and split,  train\n"
     ]
    },
    {
     "name": "stderr",
     "output_type": "stream",
     "text": [
      "ffmpeg version git-2020-02-13-6d37ca8 Copyright (c) 2000-2020 the FFmpeg developers\n",
      "  built with gcc 9.2.1 (GCC) 20200122\n",
      "  configuration: --enable-gpl --enable-version3 --enable-sdl2 --enable-fontconfig --enable-gnutls --enable-iconv --enable-libass --enable-libdav1d --enable-libbluray --enable-libfreetype --enable-libmp3lame --enable-libopencore-amrnb --enable-libopencore-amrwb --enable-libopenjpeg --enable-libopus --enable-libshine --enable-libsnappy --enable-libsoxr --enable-libtheora --enable-libtwolame --enable-libvpx --enable-libwavpack --enable-libwebp --enable-libx264 --enable-libx265 --enable-libxml2 --enable-libzimg --enable-lzma --enable-zlib --enable-gmp --enable-libvidstab --enable-libvorbis --enable-libvo-amrwbenc --enable-libmysofa --enable-libspeex --enable-libxvid --enable-libaom --enable-libmfx --enable-ffnvcodec --enable-cuvid --enable-d3d11va --enable-nvenc --enable-nvdec --enable-dxva2 --enable-avisynth --enable-libopenmpt --enable-amf\n",
      "  libavutil      56. 41.100 / 56. 41.100\n",
      "  libavcodec     58. 68.102 / 58. 68.102\n",
      "  libavformat    58. 38.100 / 58. 38.100\n",
      "  libavdevice    58.  9.103 / 58.  9.103\n",
      "  libavfilter     7. 75.100 /  7. 75.100\n",
      "  libswscale      5.  6.100 /  5.  6.100\n",
      "  libswresample   3.  6.100 /  3.  6.100\n",
      "  libpostproc    55.  6.100 / 55.  6.100\n",
      "Input #0, mov,mp4,m4a,3gp,3g2,mj2, from 'G:/deepfake\\dfdc_train_part_01\\dfdc_train_part_1\\/ooafcxxfrs.mp4':\n",
      "  Metadata:\n",
      "    major_brand     : isom\n",
      "    minor_version   : 512\n",
      "    compatible_brands: isomiso2avc1mp41\n",
      "    encoder         : Lavf57.71.100\n",
      "  Duration: 00:00:10.02, start: 0.000000, bitrate: 3487 kb/s\n",
      "    Stream #0:0(und): Video: h264 (High) (avc1 / 0x31637661), yuv420p, 1920x1080 [SAR 1:1 DAR 16:9], 3413 kb/s, 29.88 fps, 29.88 tbr, 298799 tbn, 59.76 tbc (default)\n",
      "    Metadata:\n",
      "      handler_name    : VideoHandler\n",
      "    Stream #0:1(und): Audio: aac (LC) (mp4a / 0x6134706D), 48000 Hz, mono, fltp, 69 kb/s (default)\n",
      "    Metadata:\n",
      "      handler_name    : SoundHandler\n",
      "Stream mapping:\n",
      "  Stream #0:0 -> #0:0 (h264 (native) -> mjpeg (native))\n",
      "Press [q] to stop, [?] for help\n",
      "[swscaler @ 0000018197064c40] deprecated pixel format used, make sure you did set range correctly\n",
      "Output #0, image2, to 'train/REAL/ooafcxxfrs%08d.jpg':\n",
      "  Metadata:\n",
      "    major_brand     : isom\n",
      "    minor_version   : 512\n",
      "    compatible_brands: isomiso2avc1mp41\n",
      "    encoder         : Lavf58.38.100\n",
      "    Stream #0:0(und): Video: mjpeg, yuvj420p(pc), 1920x1080 [SAR 1:1 DAR 16:9], q=2-31, 200 kb/s, 1 fps, 1 tbn, 1 tbc (default)\n",
      "    Metadata:\n",
      "      handler_name    : VideoHandler\n",
      "      encoder         : Lavc58.68.102 mjpeg\n",
      "    Side data:\n",
      "      cpb: bitrate max/min/avg: 0/0/200000 buffer size: 0 vbv_delay: N/A\n",
      "frame=    2 fps=0.0 q=4.7 size=N/A time=00:00:02.00 bitrate=N/A dup=0 drop=18 speed=3.99x    \n",
      "frame=    3 fps=3.0 q=2.4 size=N/A time=00:00:03.00 bitrate=N/A dup=0 drop=47 speed=2.96x    \n",
      "frame=    4 fps=2.6 q=1.6 size=N/A time=00:00:04.00 bitrate=N/A dup=0 drop=75 speed=2.63x    \n",
      "frame=    5 fps=2.5 q=2.8 size=N/A time=00:00:05.00 bitrate=N/A dup=0 drop=105 speed=2.45x    \n",
      "frame=    6 fps=2.4 q=4.8 size=N/A time=00:00:06.00 bitrate=N/A dup=0 drop=134 speed=2.35x    \n",
      "frame=    7 fps=2.3 q=7.4 size=N/A time=00:00:07.00 bitrate=N/A dup=0 drop=165 speed=2.28x    \n",
      "frame=    9 fps=2.5 q=13.0 size=N/A time=00:00:09.00 bitrate=N/A dup=0 drop=198 speed=2.51x    \n",
      "frame=   10 fps=2.4 q=15.9 size=N/A time=00:00:10.00 bitrate=N/A dup=0 drop=228 speed=2.44x    \n",
      "frame=   11 fps=2.4 q=18.9 size=N/A time=00:00:11.00 bitrate=N/A dup=0 drop=258 speed=2.39x    \n",
      "frame=   12 fps=2.4 q=21.9 Lsize=N/A time=00:00:12.00 bitrate=N/A dup=0 drop=287 speed=2.42x    \n",
      "video:897kB audio:0kB subtitle:0kB other streams:0kB global headers:0kB muxing overhead: unknown\n"
     ]
    },
    {
     "name": "stdout",
     "output_type": "stream",
     "text": [
      "Processing movie,  yietrwuncf.mp4  with label,  REAL  and split,  train\n"
     ]
    },
    {
     "name": "stderr",
     "output_type": "stream",
     "text": [
      "ffmpeg version git-2020-02-13-6d37ca8 Copyright (c) 2000-2020 the FFmpeg developers\n",
      "  built with gcc 9.2.1 (GCC) 20200122\n",
      "  configuration: --enable-gpl --enable-version3 --enable-sdl2 --enable-fontconfig --enable-gnutls --enable-iconv --enable-libass --enable-libdav1d --enable-libbluray --enable-libfreetype --enable-libmp3lame --enable-libopencore-amrnb --enable-libopencore-amrwb --enable-libopenjpeg --enable-libopus --enable-libshine --enable-libsnappy --enable-libsoxr --enable-libtheora --enable-libtwolame --enable-libvpx --enable-libwavpack --enable-libwebp --enable-libx264 --enable-libx265 --enable-libxml2 --enable-libzimg --enable-lzma --enable-zlib --enable-gmp --enable-libvidstab --enable-libvorbis --enable-libvo-amrwbenc --enable-libmysofa --enable-libspeex --enable-libxvid --enable-libaom --enable-libmfx --enable-ffnvcodec --enable-cuvid --enable-d3d11va --enable-nvenc --enable-nvdec --enable-dxva2 --enable-avisynth --enable-libopenmpt --enable-amf\n",
      "  libavutil      56. 41.100 / 56. 41.100\n",
      "  libavcodec     58. 68.102 / 58. 68.102\n",
      "  libavformat    58. 38.100 / 58. 38.100\n",
      "  libavdevice    58.  9.103 / 58.  9.103\n",
      "  libavfilter     7. 75.100 /  7. 75.100\n",
      "  libswscale      5.  6.100 /  5.  6.100\n",
      "  libswresample   3.  6.100 /  3.  6.100\n",
      "  libpostproc    55.  6.100 / 55.  6.100\n",
      "Input #0, mov,mp4,m4a,3gp,3g2,mj2, from 'G:/deepfake\\dfdc_train_part_01\\dfdc_train_part_1\\/gshruegrcb.mp4':\n",
      "  Metadata:\n",
      "    major_brand     : isom\n",
      "    minor_version   : 512\n",
      "    compatible_brands: isomiso2avc1mp41\n",
      "    encoder         : Lavf57.71.100\n",
      "  Duration: 00:00:10.02, start: 0.000000, bitrate: 3991 kb/s\n",
      "    Stream #0:0(und): Video: h264 (High) (avc1 / 0x31637661), yuv420p, 1920x1080 [SAR 1:1 DAR 16:9], 3918 kb/s, 29.88 fps, 29.88 tbr, 298771 tbn, 59.75 tbc (default)\n",
      "    Metadata:\n",
      "      handler_name    : VideoHandler\n",
      "    Stream #0:1(und): Audio: aac (LC) (mp4a / 0x6134706D), 48000 Hz, mono, fltp, 69 kb/s (default)\n",
      "    Metadata:\n",
      "      handler_name    : SoundHandler\n",
      "Stream mapping:\n",
      "  Stream #0:0 -> #0:0 (h264 (native) -> mjpeg (native))\n",
      "Press [q] to stop, [?] for help\n",
      "[swscaler @ 00000255d5f86fc0] deprecated pixel format used, make sure you did set range correctly\n",
      "Output #0, image2, to 'train/FAKE/gshruegrcb%08d.jpg':\n",
      "  Metadata:\n",
      "    major_brand     : isom\n",
      "    minor_version   : 512\n",
      "    compatible_brands: isomiso2avc1mp41\n",
      "    encoder         : Lavf58.38.100\n",
      "    Stream #0:0(und): Video: mjpeg, yuvj420p(pc), 1920x1080 [SAR 1:1 DAR 16:9], q=2-31, 200 kb/s, 1 fps, 1 tbn, 1 tbc (default)\n",
      "    Metadata:\n",
      "      handler_name    : VideoHandler\n",
      "      encoder         : Lavc58.68.102 mjpeg\n",
      "    Side data:\n",
      "      cpb: bitrate max/min/avg: 0/0/200000 buffer size: 0 vbv_delay: N/A\n",
      "frame=    2 fps=0.0 q=2.4 size=N/A time=00:00:02.00 bitrate=N/A dup=0 drop=23 speed= 3.9x    \n",
      "frame=    4 fps=3.9 q=1.6 size=N/A time=00:00:04.00 bitrate=N/A dup=0 drop=53 speed=3.88x    \n",
      "frame=    5 fps=3.2 q=1.6 size=N/A time=00:00:05.00 bitrate=N/A dup=0 drop=91 speed=3.24x    \n",
      "frame=    6 fps=2.9 q=1.6 size=N/A time=00:00:06.00 bitrate=N/A dup=0 drop=128 speed=2.92x    \n",
      "frame=    7 fps=2.7 q=1.8 size=N/A time=00:00:07.00 bitrate=N/A dup=0 drop=160 speed=2.73x    \n",
      "frame=    8 fps=2.6 q=2.5 size=N/A time=00:00:08.00 bitrate=N/A dup=0 drop=197 speed= 2.6x    \n",
      "frame=   10 fps=2.8 q=4.2 size=N/A time=00:00:10.00 bitrate=N/A dup=0 drop=231 speed= 2.8x    \n",
      "frame=   11 fps=2.7 q=5.2 size=N/A time=00:00:11.00 bitrate=N/A dup=0 drop=260 speed=2.69x    \n",
      "frame=   12 fps=2.6 q=6.1 Lsize=N/A time=00:00:12.00 bitrate=N/A dup=0 drop=287 speed=2.63x    \n",
      "video:580kB audio:0kB subtitle:0kB other streams:0kB global headers:0kB muxing overhead: unknown\n"
     ]
    },
    {
     "name": "stdout",
     "output_type": "stream",
     "text": [
      "Skipping because we need balanced fake and real videos\n",
      "Skipping because we need balanced fake and real videos\n",
      "Skipping because we need balanced fake and real videos\n",
      "Skipping because we need balanced fake and real videos\n",
      "Skipping because we need balanced fake and real videos\n",
      "Skipping because we need balanced fake and real videos\n",
      "Processing movie,  kvmpmhdxly.mp4  with label,  REAL  and split,  test\n"
     ]
    },
    {
     "name": "stderr",
     "output_type": "stream",
     "text": [
      "ffmpeg version git-2020-02-13-6d37ca8 Copyright (c) 2000-2020 the FFmpeg developers\n",
      "  built with gcc 9.2.1 (GCC) 20200122\n",
      "  configuration: --enable-gpl --enable-version3 --enable-sdl2 --enable-fontconfig --enable-gnutls --enable-iconv --enable-libass --enable-libdav1d --enable-libbluray --enable-libfreetype --enable-libmp3lame --enable-libopencore-amrnb --enable-libopencore-amrwb --enable-libopenjpeg --enable-libopus --enable-libshine --enable-libsnappy --enable-libsoxr --enable-libtheora --enable-libtwolame --enable-libvpx --enable-libwavpack --enable-libwebp --enable-libx264 --enable-libx265 --enable-libxml2 --enable-libzimg --enable-lzma --enable-zlib --enable-gmp --enable-libvidstab --enable-libvorbis --enable-libvo-amrwbenc --enable-libmysofa --enable-libspeex --enable-libxvid --enable-libaom --enable-libmfx --enable-ffnvcodec --enable-cuvid --enable-d3d11va --enable-nvenc --enable-nvdec --enable-dxva2 --enable-avisynth --enable-libopenmpt --enable-amf\n",
      "  libavutil      56. 41.100 / 56. 41.100\n",
      "  libavcodec     58. 68.102 / 58. 68.102\n",
      "  libavformat    58. 38.100 / 58. 38.100\n",
      "  libavdevice    58.  9.103 / 58.  9.103\n",
      "  libavfilter     7. 75.100 /  7. 75.100\n",
      "  libswscale      5.  6.100 /  5.  6.100\n",
      "  libswresample   3.  6.100 /  3.  6.100\n",
      "  libpostproc    55.  6.100 / 55.  6.100\n",
      "Input #0, mov,mp4,m4a,3gp,3g2,mj2, from 'G:/deepfake\\dfdc_train_part_01\\dfdc_train_part_1\\/yietrwuncf.mp4':\n",
      "  Metadata:\n",
      "    major_brand     : isom\n",
      "    minor_version   : 512\n",
      "    compatible_brands: isomiso2avc1mp41\n",
      "    encoder         : Lavf57.71.100\n",
      "  Duration: 00:00:10.02, start: 0.000000, bitrate: 4023 kb/s\n",
      "    Stream #0:0(und): Video: h264 (High) (avc1 / 0x31637661), yuv420p, 1920x1080 [SAR 1:1 DAR 16:9], 3949 kb/s, 29.88 fps, 29.88 tbr, 298771 tbn, 59.75 tbc (default)\n",
      "    Metadata:\n",
      "      handler_name    : VideoHandler\n",
      "    Stream #0:1(und): Audio: aac (LC) (mp4a / 0x6134706D), 48000 Hz, mono, fltp, 69 kb/s (default)\n",
      "    Metadata:\n",
      "      handler_name    : SoundHandler\n",
      "Stream mapping:\n",
      "  Stream #0:0 -> #0:0 (h264 (native) -> mjpeg (native))\n",
      "Press [q] to stop, [?] for help\n",
      "[swscaler @ 000001e953c66500] deprecated pixel format used, make sure you did set range correctly\n",
      "Output #0, image2, to 'train/REAL/yietrwuncf%08d.jpg':\n",
      "  Metadata:\n",
      "    major_brand     : isom\n",
      "    minor_version   : 512\n",
      "    compatible_brands: isomiso2avc1mp41\n",
      "    encoder         : Lavf58.38.100\n",
      "    Stream #0:0(und): Video: mjpeg, yuvj420p(pc), 1920x1080 [SAR 1:1 DAR 16:9], q=2-31, 200 kb/s, 1 fps, 1 tbn, 1 tbc (default)\n",
      "    Metadata:\n",
      "      handler_name    : VideoHandler\n",
      "      encoder         : Lavc58.68.102 mjpeg\n",
      "    Side data:\n",
      "      cpb: bitrate max/min/avg: 0/0/200000 buffer size: 0 vbv_delay: N/A\n",
      "frame=    3 fps=0.0 q=1.6 size=N/A time=00:00:03.00 bitrate=N/A dup=0 drop=24 speed=5.91x    \n",
      "frame=    4 fps=3.9 q=1.6 size=N/A time=00:00:04.00 bitrate=N/A dup=0 drop=53 speed= 3.9x    \n",
      "frame=    5 fps=3.3 q=1.6 size=N/A time=00:00:05.00 bitrate=N/A dup=0 drop=85 speed=3.26x    \n",
      "frame=    6 fps=2.9 q=1.6 size=N/A time=00:00:06.00 bitrate=N/A dup=0 drop=118 speed=2.93x    \n",
      "frame=    7 fps=2.7 q=1.8 size=N/A time=00:00:07.00 bitrate=N/A dup=0 drop=152 speed=2.74x    \n",
      "frame=    8 fps=2.6 q=2.6 size=N/A time=00:00:08.00 bitrate=N/A dup=0 drop=184 speed= 2.6x    \n",
      "frame=    9 fps=2.5 q=3.3 size=N/A time=00:00:09.00 bitrate=N/A dup=0 drop=216 speed=2.51x    \n",
      "frame=   10 fps=2.4 q=4.4 size=N/A time=00:00:10.00 bitrate=N/A dup=0 drop=248 speed=2.45x    \n",
      "frame=   11 fps=2.4 q=5.4 size=N/A time=00:00:11.00 bitrate=N/A dup=0 drop=283 speed=2.39x    \n",
      "frame=   12 fps=2.6 q=6.4 Lsize=N/A time=00:00:12.00 bitrate=N/A dup=0 drop=287 speed=2.57x    \n",
      "video:585kB audio:0kB subtitle:0kB other streams:0kB global headers:0kB muxing overhead: unknown\n"
     ]
    },
    {
     "name": "stdout",
     "output_type": "stream",
     "text": [
      "Processing movie,  kgpibfbwhy.mp4  with label,  FAKE  and split,  validation\n"
     ]
    },
    {
     "name": "stderr",
     "output_type": "stream",
     "text": [
      "ffmpeg version git-2020-02-13-6d37ca8 Copyright (c) 2000-2020 the FFmpeg developers\n",
      "  built with gcc 9.2.1 (GCC) 20200122\n",
      "  configuration: --enable-gpl --enable-version3 --enable-sdl2 --enable-fontconfig --enable-gnutls --enable-iconv --enable-libass --enable-libdav1d --enable-libbluray --enable-libfreetype --enable-libmp3lame --enable-libopencore-amrnb --enable-libopencore-amrwb --enable-libopenjpeg --enable-libopus --enable-libshine --enable-libsnappy --enable-libsoxr --enable-libtheora --enable-libtwolame --enable-libvpx --enable-libwavpack --enable-libwebp --enable-libx264 --enable-libx265 --enable-libxml2 --enable-libzimg --enable-lzma --enable-zlib --enable-gmp --enable-libvidstab --enable-libvorbis --enable-libvo-amrwbenc --enable-libmysofa --enable-libspeex --enable-libxvid --enable-libaom --enable-libmfx --enable-ffnvcodec --enable-cuvid --enable-d3d11va --enable-nvenc --enable-nvdec --enable-dxva2 --enable-avisynth --enable-libopenmpt --enable-amf\n",
      "  libavutil      56. 41.100 / 56. 41.100\n",
      "  libavcodec     58. 68.102 / 58. 68.102\n",
      "  libavformat    58. 38.100 / 58. 38.100\n",
      "  libavdevice    58.  9.103 / 58.  9.103\n",
      "  libavfilter     7. 75.100 /  7. 75.100\n",
      "  libswscale      5.  6.100 /  5.  6.100\n",
      "  libswresample   3.  6.100 /  3.  6.100\n",
      "  libpostproc    55.  6.100 / 55.  6.100\n",
      "Input #0, mov,mp4,m4a,3gp,3g2,mj2, from 'G:/deepfake\\dfdc_train_part_01\\dfdc_train_part_1\\/kvmpmhdxly.mp4':\n",
      "  Metadata:\n",
      "    major_brand     : isom\n",
      "    minor_version   : 512\n",
      "    compatible_brands: isomiso2avc1mp41\n",
      "    encoder         : Lavf57.71.100\n",
      "  Duration: 00:00:10.02, start: 0.000000, bitrate: 3537 kb/s\n",
      "    Stream #0:0(und): Video: h264 (High) (avc1 / 0x31637661), yuv420p, 1920x1080 [SAR 1:1 DAR 16:9], 3463 kb/s, 29.88 fps, 29.88 tbr, 298767 tbn, 59.75 tbc (default)\n",
      "    Metadata:\n",
      "      handler_name    : VideoHandler\n",
      "    Stream #0:1(und): Audio: aac (LC) (mp4a / 0x6134706D), 48000 Hz, mono, fltp, 69 kb/s (default)\n",
      "    Metadata:\n",
      "      handler_name    : SoundHandler\n",
      "Stream mapping:\n",
      "  Stream #0:0 -> #0:0 (h264 (native) -> mjpeg (native))\n",
      "Press [q] to stop, [?] for help\n",
      "[swscaler @ 000001a5c0266f80] deprecated pixel format used, make sure you did set range correctly\n",
      "Output #0, image2, to 'test/REAL/kvmpmhdxly%08d.jpg':\n",
      "  Metadata:\n",
      "    major_brand     : isom\n",
      "    minor_version   : 512\n",
      "    compatible_brands: isomiso2avc1mp41\n",
      "    encoder         : Lavf58.38.100\n",
      "    Stream #0:0(und): Video: mjpeg, yuvj420p(pc), 1920x1080 [SAR 1:1 DAR 16:9], q=2-31, 200 kb/s, 1 fps, 1 tbn, 1 tbc (default)\n",
      "    Metadata:\n",
      "      handler_name    : VideoHandler\n",
      "      encoder         : Lavc58.68.102 mjpeg\n",
      "    Side data:\n",
      "      cpb: bitrate max/min/avg: 0/0/200000 buffer size: 0 vbv_delay: N/A\n",
      "frame=    2 fps=0.0 q=4.9 size=N/A time=00:00:02.00 bitrate=N/A dup=0 drop=19 speed=3.95x    \n",
      "frame=    3 fps=2.9 q=2.6 size=N/A time=00:00:03.00 bitrate=N/A dup=0 drop=48 speed=2.94x    \n",
      "frame=    4 fps=2.6 q=1.6 size=N/A time=00:00:04.00 bitrate=N/A dup=0 drop=77 speed=2.62x    \n",
      "frame=    5 fps=2.5 q=2.7 size=N/A time=00:00:05.00 bitrate=N/A dup=0 drop=103 speed=2.47x    \n",
      "frame=    6 fps=2.4 q=4.8 size=N/A time=00:00:06.00 bitrate=N/A dup=0 drop=133 speed=2.37x    \n",
      "frame=    7 fps=2.3 q=7.3 size=N/A time=00:00:07.00 bitrate=N/A dup=0 drop=163 speed= 2.3x    \n",
      "frame=    8 fps=2.2 q=10.0 size=N/A time=00:00:08.00 bitrate=N/A dup=0 drop=192 speed=2.25x    \n",
      "frame=    9 fps=2.2 q=12.9 size=N/A time=00:00:09.00 bitrate=N/A dup=0 drop=221 speed=2.21x    \n",
      "frame=   10 fps=2.2 q=15.8 size=N/A time=00:00:10.00 bitrate=N/A dup=0 drop=251 speed=2.18x    \n",
      "frame=   11 fps=2.2 q=18.8 size=N/A time=00:00:11.00 bitrate=N/A dup=0 drop=282 speed=2.16x    \n",
      "frame=   12 fps=2.3 q=21.8 Lsize=N/A time=00:00:12.00 bitrate=N/A dup=0 drop=287 speed=2.32x    \n",
      "video:870kB audio:0kB subtitle:0kB other streams:0kB global headers:0kB muxing overhead: unknown\n"
     ]
    },
    {
     "name": "stdout",
     "output_type": "stream",
     "text": [
      "Processing movie,  viteugozpv.mp4  with label,  REAL  and split,  validation\n"
     ]
    },
    {
     "name": "stderr",
     "output_type": "stream",
     "text": [
      "ffmpeg version git-2020-02-13-6d37ca8 Copyright (c) 2000-2020 the FFmpeg developers\n",
      "  built with gcc 9.2.1 (GCC) 20200122\n",
      "  configuration: --enable-gpl --enable-version3 --enable-sdl2 --enable-fontconfig --enable-gnutls --enable-iconv --enable-libass --enable-libdav1d --enable-libbluray --enable-libfreetype --enable-libmp3lame --enable-libopencore-amrnb --enable-libopencore-amrwb --enable-libopenjpeg --enable-libopus --enable-libshine --enable-libsnappy --enable-libsoxr --enable-libtheora --enable-libtwolame --enable-libvpx --enable-libwavpack --enable-libwebp --enable-libx264 --enable-libx265 --enable-libxml2 --enable-libzimg --enable-lzma --enable-zlib --enable-gmp --enable-libvidstab --enable-libvorbis --enable-libvo-amrwbenc --enable-libmysofa --enable-libspeex --enable-libxvid --enable-libaom --enable-libmfx --enable-ffnvcodec --enable-cuvid --enable-d3d11va --enable-nvenc --enable-nvdec --enable-dxva2 --enable-avisynth --enable-libopenmpt --enable-amf\n",
      "  libavutil      56. 41.100 / 56. 41.100\n",
      "  libavcodec     58. 68.102 / 58. 68.102\n",
      "  libavformat    58. 38.100 / 58. 38.100\n",
      "  libavdevice    58.  9.103 / 58.  9.103\n",
      "  libavfilter     7. 75.100 /  7. 75.100\n",
      "  libswscale      5.  6.100 /  5.  6.100\n",
      "  libswresample   3.  6.100 /  3.  6.100\n",
      "  libpostproc    55.  6.100 / 55.  6.100\n",
      "Input #0, mov,mp4,m4a,3gp,3g2,mj2, from 'G:/deepfake\\dfdc_train_part_01\\dfdc_train_part_1\\/kgpibfbwhy.mp4':\n",
      "  Metadata:\n",
      "    major_brand     : isom\n",
      "    minor_version   : 512\n",
      "    compatible_brands: isomiso2avc1mp41\n",
      "    encoder         : Lavf57.71.100\n",
      "  Duration: 00:00:10.02, start: 0.000000, bitrate: 2596 kb/s\n",
      "    Stream #0:0(und): Video: h264 (High) (avc1 / 0x31637661), yuv420p, 1920x1080 [SAR 1:1 DAR 16:9], 2521 kb/s, 29.88 fps, 29.88 tbr, 298799 tbn, 59.76 tbc (default)\n",
      "    Metadata:\n",
      "      handler_name    : VideoHandler\n",
      "    Stream #0:1(und): Audio: aac (LC) (mp4a / 0x6134706D), 48000 Hz, mono, fltp, 69 kb/s (default)\n",
      "    Metadata:\n",
      "      handler_name    : SoundHandler\n",
      "Stream mapping:\n",
      "  Stream #0:0 -> #0:0 (h264 (native) -> mjpeg (native))\n",
      "Press [q] to stop, [?] for help\n",
      "[swscaler @ 000001912edea500] deprecated pixel format used, make sure you did set range correctly\n",
      "Output #0, image2, to 'validation/FAKE/kgpibfbwhy%08d.jpg':\n",
      "  Metadata:\n",
      "    major_brand     : isom\n",
      "    minor_version   : 512\n",
      "    compatible_brands: isomiso2avc1mp41\n",
      "    encoder         : Lavf58.38.100\n",
      "    Stream #0:0(und): Video: mjpeg, yuvj420p(pc), 1920x1080 [SAR 1:1 DAR 16:9], q=2-31, 200 kb/s, 1 fps, 1 tbn, 1 tbc (default)\n",
      "    Metadata:\n",
      "      handler_name    : VideoHandler\n",
      "      encoder         : Lavc58.68.102 mjpeg\n",
      "    Side data:\n",
      "      cpb: bitrate max/min/avg: 0/0/200000 buffer size: 0 vbv_delay: N/A\n",
      "frame=    3 fps=0.0 q=2.0 size=N/A time=00:00:03.00 bitrate=N/A dup=0 drop=24 speed=5.91x    \n",
      "frame=    4 fps=3.9 q=1.6 size=N/A time=00:00:04.00 bitrate=N/A dup=0 drop=58 speed=3.94x    \n",
      "frame=    5 fps=3.3 q=1.9 size=N/A time=00:00:05.00 bitrate=N/A dup=0 drop=89 speed=3.28x    \n",
      "frame=    6 fps=2.9 q=3.8 size=N/A time=00:00:06.00 bitrate=N/A dup=0 drop=119 speed=2.94x    \n",
      "frame=    7 fps=2.7 q=6.2 size=N/A time=00:00:07.00 bitrate=N/A dup=0 drop=151 speed=2.75x    \n",
      "frame=    8 fps=2.6 q=8.9 size=N/A time=00:00:08.00 bitrate=N/A dup=0 drop=182 speed=2.61x    \n",
      "frame=    9 fps=2.5 q=11.7 size=N/A time=00:00:09.00 bitrate=N/A dup=0 drop=213 speed=2.52x    \n",
      "frame=   10 fps=2.5 q=14.6 size=N/A time=00:00:10.00 bitrate=N/A dup=0 drop=245 speed=2.45x    \n",
      "frame=   11 fps=2.4 q=17.6 size=N/A time=00:00:11.00 bitrate=N/A dup=0 drop=277 speed= 2.4x    \n",
      "frame=   12 fps=2.5 q=20.6 Lsize=N/A time=00:00:12.00 bitrate=N/A dup=0 drop=287 speed=2.52x    \n",
      "video:715kB audio:0kB subtitle:0kB other streams:0kB global headers:0kB muxing overhead: unknown\n"
     ]
    },
    {
     "name": "stdout",
     "output_type": "stream",
     "text": [
      "Skipping because we need balanced fake and real videos\n",
      "Skipping because we need balanced fake and real videos\n",
      "Skipping because we need balanced fake and real videos\n",
      "Skipping because we need balanced fake and real videos\n",
      "Skipping because we need balanced fake and real videos\n",
      "Processing movie,  fmhiujydwo.mp4  with label,  REAL  and split,  train\n"
     ]
    },
    {
     "name": "stderr",
     "output_type": "stream",
     "text": [
      "ffmpeg version git-2020-02-13-6d37ca8 Copyright (c) 2000-2020 the FFmpeg developers\n",
      "  built with gcc 9.2.1 (GCC) 20200122\n",
      "  configuration: --enable-gpl --enable-version3 --enable-sdl2 --enable-fontconfig --enable-gnutls --enable-iconv --enable-libass --enable-libdav1d --enable-libbluray --enable-libfreetype --enable-libmp3lame --enable-libopencore-amrnb --enable-libopencore-amrwb --enable-libopenjpeg --enable-libopus --enable-libshine --enable-libsnappy --enable-libsoxr --enable-libtheora --enable-libtwolame --enable-libvpx --enable-libwavpack --enable-libwebp --enable-libx264 --enable-libx265 --enable-libxml2 --enable-libzimg --enable-lzma --enable-zlib --enable-gmp --enable-libvidstab --enable-libvorbis --enable-libvo-amrwbenc --enable-libmysofa --enable-libspeex --enable-libxvid --enable-libaom --enable-libmfx --enable-ffnvcodec --enable-cuvid --enable-d3d11va --enable-nvenc --enable-nvdec --enable-dxva2 --enable-avisynth --enable-libopenmpt --enable-amf\n",
      "  libavutil      56. 41.100 / 56. 41.100\n",
      "  libavcodec     58. 68.102 / 58. 68.102\n",
      "  libavformat    58. 38.100 / 58. 38.100\n",
      "  libavdevice    58.  9.103 / 58.  9.103\n",
      "  libavfilter     7. 75.100 /  7. 75.100\n",
      "  libswscale      5.  6.100 /  5.  6.100\n",
      "  libswresample   3.  6.100 /  3.  6.100\n",
      "  libpostproc    55.  6.100 / 55.  6.100\n",
      "Input #0, mov,mp4,m4a,3gp,3g2,mj2, from 'G:/deepfake\\dfdc_train_part_01\\dfdc_train_part_1\\/viteugozpv.mp4':\n",
      "  Metadata:\n",
      "    major_brand     : isom\n",
      "    minor_version   : 512\n",
      "    compatible_brands: isomiso2avc1mp41\n",
      "    encoder         : Lavf57.71.100\n",
      "  Duration: 00:00:10.02, start: 0.000000, bitrate: 2581 kb/s\n",
      "    Stream #0:0(und): Video: h264 (High) (avc1 / 0x31637661), yuv420p, 1920x1080 [SAR 1:1 DAR 16:9], 2505 kb/s, 29.88 fps, 29.88 tbr, 298799 tbn, 59.76 tbc (default)\n",
      "    Metadata:\n",
      "      handler_name    : VideoHandler\n",
      "    Stream #0:1(und): Audio: aac (LC) (mp4a / 0x6134706D), 48000 Hz, mono, fltp, 69 kb/s (default)\n",
      "    Metadata:\n",
      "      handler_name    : SoundHandler\n",
      "Stream mapping:\n",
      "  Stream #0:0 -> #0:0 (h264 (native) -> mjpeg (native))\n",
      "Press [q] to stop, [?] for help\n",
      "[swscaler @ 000002c95360fe80] deprecated pixel format used, make sure you did set range correctly\n",
      "Output #0, image2, to 'validation/REAL/viteugozpv%08d.jpg':\n",
      "  Metadata:\n",
      "    major_brand     : isom\n",
      "    minor_version   : 512\n",
      "    compatible_brands: isomiso2avc1mp41\n",
      "    encoder         : Lavf58.38.100\n",
      "    Stream #0:0(und): Video: mjpeg, yuvj420p(pc), 1920x1080 [SAR 1:1 DAR 16:9], q=2-31, 200 kb/s, 1 fps, 1 tbn, 1 tbc (default)\n",
      "    Metadata:\n",
      "      handler_name    : VideoHandler\n",
      "      encoder         : Lavc58.68.102 mjpeg\n",
      "    Side data:\n",
      "      cpb: bitrate max/min/avg: 0/0/200000 buffer size: 0 vbv_delay: N/A\n",
      "frame=    2 fps=0.0 q=4.3 size=N/A time=00:00:02.00 bitrate=N/A dup=0 drop=16 speed=3.97x    \n",
      "frame=    3 fps=2.9 q=2.1 size=N/A time=00:00:03.00 bitrate=N/A dup=0 drop=52 speed=2.94x    \n",
      "frame=    5 fps=3.2 q=1.9 size=N/A time=00:00:05.00 bitrate=N/A dup=0 drop=82 speed= 3.2x    \n",
      "frame=    6 fps=2.9 q=3.8 size=N/A time=00:00:06.00 bitrate=N/A dup=0 drop=112 speed=2.91x    \n",
      "frame=    7 fps=2.7 q=6.2 size=N/A time=00:00:07.00 bitrate=N/A dup=0 drop=141 speed=2.73x    \n",
      "frame=    8 fps=2.6 q=8.9 size=N/A time=00:00:08.00 bitrate=N/A dup=0 drop=169 speed= 2.6x    \n",
      "frame=    9 fps=2.5 q=11.7 size=N/A time=00:00:09.00 bitrate=N/A dup=0 drop=198 speed= 2.5x    \n",
      "frame=   10 fps=2.4 q=14.7 size=N/A time=00:00:10.00 bitrate=N/A dup=0 drop=230 speed=2.43x    \n",
      "frame=   11 fps=2.4 q=17.6 size=N/A time=00:00:11.00 bitrate=N/A dup=0 drop=260 speed=2.37x    \n",
      "frame=   12 fps=2.4 q=20.6 Lsize=N/A time=00:00:12.00 bitrate=N/A dup=0 drop=287 speed=2.39x    \n",
      "video:714kB audio:0kB subtitle:0kB other streams:0kB global headers:0kB muxing overhead: unknown\n"
     ]
    },
    {
     "name": "stdout",
     "output_type": "stream",
     "text": [
      "Processing movie,  orblnqzpra.mp4  with label,  REAL  and split,  train\n"
     ]
    },
    {
     "name": "stderr",
     "output_type": "stream",
     "text": [
      "ffmpeg version git-2020-02-13-6d37ca8 Copyright (c) 2000-2020 the FFmpeg developers\n",
      "  built with gcc 9.2.1 (GCC) 20200122\n",
      "  configuration: --enable-gpl --enable-version3 --enable-sdl2 --enable-fontconfig --enable-gnutls --enable-iconv --enable-libass --enable-libdav1d --enable-libbluray --enable-libfreetype --enable-libmp3lame --enable-libopencore-amrnb --enable-libopencore-amrwb --enable-libopenjpeg --enable-libopus --enable-libshine --enable-libsnappy --enable-libsoxr --enable-libtheora --enable-libtwolame --enable-libvpx --enable-libwavpack --enable-libwebp --enable-libx264 --enable-libx265 --enable-libxml2 --enable-libzimg --enable-lzma --enable-zlib --enable-gmp --enable-libvidstab --enable-libvorbis --enable-libvo-amrwbenc --enable-libmysofa --enable-libspeex --enable-libxvid --enable-libaom --enable-libmfx --enable-ffnvcodec --enable-cuvid --enable-d3d11va --enable-nvenc --enable-nvdec --enable-dxva2 --enable-avisynth --enable-libopenmpt --enable-amf\n",
      "  libavutil      56. 41.100 / 56. 41.100\n",
      "  libavcodec     58. 68.102 / 58. 68.102\n",
      "  libavformat    58. 38.100 / 58. 38.100\n",
      "  libavdevice    58.  9.103 / 58.  9.103\n",
      "  libavfilter     7. 75.100 /  7. 75.100\n",
      "  libswscale      5.  6.100 /  5.  6.100\n",
      "  libswresample   3.  6.100 /  3.  6.100\n",
      "  libpostproc    55.  6.100 / 55.  6.100\n",
      "Input #0, mov,mp4,m4a,3gp,3g2,mj2, from 'G:/deepfake\\dfdc_train_part_01\\dfdc_train_part_1\\/fmhiujydwo.mp4':\n",
      "  Metadata:\n",
      "    major_brand     : isom\n",
      "    minor_version   : 512\n",
      "    compatible_brands: isomiso2avc1mp41\n",
      "    encoder         : Lavf57.71.100\n",
      "  Duration: 00:00:10.02, start: 0.000000, bitrate: 5412 kb/s\n",
      "    Stream #0:0(und): Video: h264 (High) (avc1 / 0x31637661), yuv420p, 1920x1080 [SAR 1:1 DAR 16:9], 5341 kb/s, 29.88 fps, 29.88 tbr, 298799 tbn, 59.76 tbc (default)\n",
      "    Metadata:\n",
      "      handler_name    : VideoHandler\n",
      "    Stream #0:1(und): Audio: aac (LC) (mp4a / 0x6134706D), 48000 Hz, mono, fltp, 69 kb/s (default)\n",
      "    Metadata:\n",
      "      handler_name    : SoundHandler\n",
      "Stream mapping:\n",
      "  Stream #0:0 -> #0:0 (h264 (native) -> mjpeg (native))\n",
      "Press [q] to stop, [?] for help\n",
      "[swscaler @ 000002233d670740] deprecated pixel format used, make sure you did set range correctly\n",
      "Output #0, image2, to 'train/REAL/fmhiujydwo%08d.jpg':\n",
      "  Metadata:\n",
      "    major_brand     : isom\n",
      "    minor_version   : 512\n",
      "    compatible_brands: isomiso2avc1mp41\n",
      "    encoder         : Lavf58.38.100\n",
      "    Stream #0:0(und): Video: mjpeg, yuvj420p(pc), 1920x1080 [SAR 1:1 DAR 16:9], q=2-31, 200 kb/s, 1 fps, 1 tbn, 1 tbc (default)\n",
      "    Metadata:\n",
      "      handler_name    : VideoHandler\n",
      "      encoder         : Lavc58.68.102 mjpeg\n",
      "    Side data:\n",
      "      cpb: bitrate max/min/avg: 0/0/200000 buffer size: 0 vbv_delay: N/A\n",
      "frame=    2 fps=0.0 q=2.5 size=N/A time=00:00:02.00 bitrate=N/A dup=0 drop=22 speed= 3.9x    \n",
      "frame=    3 fps=2.9 q=1.6 size=N/A time=00:00:03.00 bitrate=N/A dup=0 drop=52 speed=2.95x    \n",
      "frame=    5 fps=3.2 q=1.6 size=N/A time=00:00:05.00 bitrate=N/A dup=0 drop=82 speed=3.23x    \n",
      "frame=    6 fps=2.9 q=1.7 size=N/A time=00:00:06.00 bitrate=N/A dup=0 drop=112 speed=2.92x    \n",
      "frame=    7 fps=2.7 q=2.8 size=N/A time=00:00:07.00 bitrate=N/A dup=0 drop=143 speed=2.72x    \n",
      "frame=    8 fps=2.6 q=4.0 size=N/A time=00:00:08.00 bitrate=N/A dup=0 drop=176 speed=2.59x    \n",
      "frame=   10 fps=2.8 q=7.4 size=N/A time=00:00:10.00 bitrate=N/A dup=0 drop=227 speed=2.77x    \n",
      "frame=   11 fps=2.7 q=9.6 size=N/A time=00:00:11.00 bitrate=N/A dup=0 drop=256 speed=2.68x    \n",
      "frame=   12 fps=2.6 q=12.3 Lsize=N/A time=00:00:12.00 bitrate=N/A dup=0 drop=287 speed=2.64x    \n",
      "video:626kB audio:0kB subtitle:0kB other streams:0kB global headers:0kB muxing overhead: unknown\n"
     ]
    },
    {
     "name": "stdout",
     "output_type": "stream",
     "text": [
      "Processing movie,  dikzljabcv.mp4  with label,  FAKE  and split,  test\n"
     ]
    },
    {
     "name": "stderr",
     "output_type": "stream",
     "text": [
      "ffmpeg version git-2020-02-13-6d37ca8 Copyright (c) 2000-2020 the FFmpeg developers\n",
      "  built with gcc 9.2.1 (GCC) 20200122\n",
      "  configuration: --enable-gpl --enable-version3 --enable-sdl2 --enable-fontconfig --enable-gnutls --enable-iconv --enable-libass --enable-libdav1d --enable-libbluray --enable-libfreetype --enable-libmp3lame --enable-libopencore-amrnb --enable-libopencore-amrwb --enable-libopenjpeg --enable-libopus --enable-libshine --enable-libsnappy --enable-libsoxr --enable-libtheora --enable-libtwolame --enable-libvpx --enable-libwavpack --enable-libwebp --enable-libx264 --enable-libx265 --enable-libxml2 --enable-libzimg --enable-lzma --enable-zlib --enable-gmp --enable-libvidstab --enable-libvorbis --enable-libvo-amrwbenc --enable-libmysofa --enable-libspeex --enable-libxvid --enable-libaom --enable-libmfx --enable-ffnvcodec --enable-cuvid --enable-d3d11va --enable-nvenc --enable-nvdec --enable-dxva2 --enable-avisynth --enable-libopenmpt --enable-amf\n",
      "  libavutil      56. 41.100 / 56. 41.100\n",
      "  libavcodec     58. 68.102 / 58. 68.102\n",
      "  libavformat    58. 38.100 / 58. 38.100\n",
      "  libavdevice    58.  9.103 / 58.  9.103\n",
      "  libavfilter     7. 75.100 /  7. 75.100\n",
      "  libswscale      5.  6.100 /  5.  6.100\n",
      "  libswresample   3.  6.100 /  3.  6.100\n",
      "  libpostproc    55.  6.100 / 55.  6.100\n",
      "Input #0, mov,mp4,m4a,3gp,3g2,mj2, from 'G:/deepfake\\dfdc_train_part_01\\dfdc_train_part_1\\/orblnqzpra.mp4':\n",
      "  Metadata:\n",
      "    major_brand     : isom\n",
      "    minor_version   : 512\n",
      "    compatible_brands: isomiso2avc1mp41\n",
      "    encoder         : Lavf57.71.100\n",
      "  Duration: 00:00:10.02, start: 0.000000, bitrate: 3239 kb/s\n",
      "    Stream #0:0(und): Video: h264 (High) (avc1 / 0x31637661), yuv420p, 1920x1080 [SAR 1:1 DAR 16:9], 3164 kb/s, 29.88 fps, 29.88 tbr, 37347 tbn, 59.76 tbc (default)\n",
      "    Metadata:\n",
      "      handler_name    : VideoHandler\n",
      "    Stream #0:1(und): Audio: aac (LC) (mp4a / 0x6134706D), 48000 Hz, mono, fltp, 69 kb/s (default)\n",
      "    Metadata:\n",
      "      handler_name    : SoundHandler\n",
      "Stream mapping:\n",
      "  Stream #0:0 -> #0:0 (h264 (native) -> mjpeg (native))\n",
      "Press [q] to stop, [?] for help\n",
      "[swscaler @ 0000020956316740] deprecated pixel format used, make sure you did set range correctly\n",
      "Output #0, image2, to 'train/REAL/orblnqzpra%08d.jpg':\n",
      "  Metadata:\n",
      "    major_brand     : isom\n",
      "    minor_version   : 512\n",
      "    compatible_brands: isomiso2avc1mp41\n",
      "    encoder         : Lavf58.38.100\n",
      "    Stream #0:0(und): Video: mjpeg, yuvj420p(pc), 1920x1080 [SAR 1:1 DAR 16:9], q=2-31, 200 kb/s, 1 fps, 1 tbn, 1 tbc (default)\n",
      "    Metadata:\n",
      "      handler_name    : VideoHandler\n",
      "      encoder         : Lavc58.68.102 mjpeg\n",
      "    Side data:\n",
      "      cpb: bitrate max/min/avg: 0/0/200000 buffer size: 0 vbv_delay: N/A\n",
      "frame=    2 fps=0.0 q=4.9 size=N/A time=00:00:02.00 bitrate=N/A dup=0 drop=21 speed=3.95x    \n",
      "frame=    3 fps=3.0 q=2.7 size=N/A time=00:00:03.00 bitrate=N/A dup=0 drop=51 speed=2.96x    \n",
      "frame=    5 fps=3.3 q=2.8 size=N/A time=00:00:05.00 bitrate=N/A dup=0 drop=82 speed=3.28x    \n",
      "frame=    6 fps=2.9 q=4.8 size=N/A time=00:00:06.00 bitrate=N/A dup=0 drop=111 speed=2.94x    \n",
      "frame=    7 fps=2.7 q=7.3 size=N/A time=00:00:07.00 bitrate=N/A dup=0 drop=156 speed=2.75x    \n",
      "frame=    8 fps=2.6 q=10.1 size=N/A time=00:00:08.00 bitrate=N/A dup=0 drop=192 speed=2.61x    \n",
      "frame=    9 fps=2.5 q=12.9 size=N/A time=00:00:09.00 bitrate=N/A dup=0 drop=220 speed=2.52x    \n",
      "frame=   10 fps=2.4 q=15.9 size=N/A time=00:00:10.00 bitrate=N/A dup=0 drop=249 speed=2.45x    \n",
      "frame=   12 fps=2.6 q=21.8 size=N/A time=00:00:12.00 bitrate=N/A dup=0 drop=285 speed=2.62x    \n",
      "frame=   12 fps=2.6 q=21.8 Lsize=N/A time=00:00:12.00 bitrate=N/A dup=0 drop=287 speed=2.61x    \n",
      "video:927kB audio:0kB subtitle:0kB other streams:0kB global headers:0kB muxing overhead: unknown\n"
     ]
    },
    {
     "name": "stdout",
     "output_type": "stream",
     "text": [
      "Processing movie,  ywauoonmlr.mp4  with label,  REAL  and split,  test\n"
     ]
    },
    {
     "name": "stderr",
     "output_type": "stream",
     "text": [
      "ffmpeg version git-2020-02-13-6d37ca8 Copyright (c) 2000-2020 the FFmpeg developers\n",
      "  built with gcc 9.2.1 (GCC) 20200122\n",
      "  configuration: --enable-gpl --enable-version3 --enable-sdl2 --enable-fontconfig --enable-gnutls --enable-iconv --enable-libass --enable-libdav1d --enable-libbluray --enable-libfreetype --enable-libmp3lame --enable-libopencore-amrnb --enable-libopencore-amrwb --enable-libopenjpeg --enable-libopus --enable-libshine --enable-libsnappy --enable-libsoxr --enable-libtheora --enable-libtwolame --enable-libvpx --enable-libwavpack --enable-libwebp --enable-libx264 --enable-libx265 --enable-libxml2 --enable-libzimg --enable-lzma --enable-zlib --enable-gmp --enable-libvidstab --enable-libvorbis --enable-libvo-amrwbenc --enable-libmysofa --enable-libspeex --enable-libxvid --enable-libaom --enable-libmfx --enable-ffnvcodec --enable-cuvid --enable-d3d11va --enable-nvenc --enable-nvdec --enable-dxva2 --enable-avisynth --enable-libopenmpt --enable-amf\n",
      "  libavutil      56. 41.100 / 56. 41.100\n",
      "  libavcodec     58. 68.102 / 58. 68.102\n",
      "  libavformat    58. 38.100 / 58. 38.100\n",
      "  libavdevice    58.  9.103 / 58.  9.103\n",
      "  libavfilter     7. 75.100 /  7. 75.100\n",
      "  libswscale      5.  6.100 /  5.  6.100\n",
      "  libswresample   3.  6.100 /  3.  6.100\n",
      "  libpostproc    55.  6.100 / 55.  6.100\n",
      "Input #0, mov,mp4,m4a,3gp,3g2,mj2, from 'G:/deepfake\\dfdc_train_part_01\\dfdc_train_part_1\\/dikzljabcv.mp4':\n",
      "  Metadata:\n",
      "    major_brand     : isom\n",
      "    minor_version   : 512\n",
      "    compatible_brands: isomiso2avc1mp41\n",
      "    encoder         : Lavf57.71.100\n",
      "  Duration: 00:00:10.02, start: 0.000000, bitrate: 5215 kb/s\n",
      "    Stream #0:0(und): Video: h264 (High) (avc1 / 0x31637661), yuv420p, 1920x1080 [SAR 1:1 DAR 16:9], 5143 kb/s, 29.88 fps, 29.88 tbr, 298799 tbn, 59.76 tbc (default)\n",
      "    Metadata:\n",
      "      handler_name    : VideoHandler\n",
      "    Stream #0:1(und): Audio: aac (LC) (mp4a / 0x6134706D), 48000 Hz, mono, fltp, 69 kb/s (default)\n",
      "    Metadata:\n",
      "      handler_name    : SoundHandler\n",
      "Stream mapping:\n",
      "  Stream #0:0 -> #0:0 (h264 (native) -> mjpeg (native))\n",
      "Press [q] to stop, [?] for help\n",
      "[swscaler @ 0000016d66cba740] deprecated pixel format used, make sure you did set range correctly\n",
      "Output #0, image2, to 'test/FAKE/dikzljabcv%08d.jpg':\n",
      "  Metadata:\n",
      "    major_brand     : isom\n",
      "    minor_version   : 512\n",
      "    compatible_brands: isomiso2avc1mp41\n",
      "    encoder         : Lavf58.38.100\n",
      "    Stream #0:0(und): Video: mjpeg, yuvj420p(pc), 1920x1080 [SAR 1:1 DAR 16:9], q=2-31, 200 kb/s, 1 fps, 1 tbn, 1 tbc (default)\n",
      "    Metadata:\n",
      "      handler_name    : VideoHandler\n",
      "      encoder         : Lavc58.68.102 mjpeg\n",
      "    Side data:\n",
      "      cpb: bitrate max/min/avg: 0/0/200000 buffer size: 0 vbv_delay: N/A\n",
      "frame=    3 fps=0.0 q=2.3 size=N/A time=00:00:03.00 bitrate=N/A dup=0 drop=27 speed=5.87x    \n",
      "frame=    4 fps=3.9 q=1.6 size=N/A time=00:00:04.00 bitrate=N/A dup=0 drop=58 speed=3.93x    \n",
      "frame=    5 fps=3.2 q=2.6 size=N/A time=00:00:05.00 bitrate=N/A dup=0 drop=98 speed=3.23x    \n",
      "frame=    6 fps=2.9 q=4.7 size=N/A time=00:00:06.00 bitrate=N/A dup=0 drop=130 speed= 2.9x    \n",
      "frame=    7 fps=2.7 q=7.2 size=N/A time=00:00:07.00 bitrate=N/A dup=0 drop=162 speed=2.72x    \n",
      "frame=    8 fps=2.6 q=9.9 size=N/A time=00:00:08.00 bitrate=N/A dup=0 drop=194 speed=2.59x    \n",
      "frame=    9 fps=2.5 q=12.8 size=N/A time=00:00:09.00 bitrate=N/A dup=0 drop=225 speed= 2.5x    \n",
      "frame=   11 fps=2.7 q=18.7 size=N/A time=00:00:11.00 bitrate=N/A dup=0 drop=255 speed=2.67x    \n",
      "frame=   12 fps=2.6 q=21.7 Lsize=N/A time=00:00:12.00 bitrate=N/A dup=0 drop=287 speed=2.62x    \n",
      "video:785kB audio:0kB subtitle:0kB other streams:0kB global headers:0kB muxing overhead: unknown\n"
     ]
    },
    {
     "name": "stdout",
     "output_type": "stream",
     "text": [
      "moviesProcessed > MAX\n",
      "found metadata,  G:/deepfake\\dfdc_train_part_02\\dfdc_train_part_2\\metadata.json\n",
      "moviesProcessed > MAX\n",
      "found metadata,  G:/deepfake\\dfdc_train_part_03\\dfdc_train_part_3\\metadata.json\n",
      "moviesProcessed > MAX\n",
      "found metadata,  G:/deepfake\\dfdc_train_part_04\\dfdc_train_part_4\\metadata.json\n",
      "moviesProcessed > MAX\n",
      "found metadata,  G:/deepfake\\dfdc_train_part_22\\dfdc_train_part_22\\metadata.json\n",
      "moviesProcessed > MAX\n",
      "found metadata,  G:/deepfake\\dfdc_train_part_23\\dfdc_train_part_23\\metadata.json\n",
      "moviesProcessed > MAX\n",
      "found metadata,  G:/deepfake\\dfdc_train_part_24\\dfdc_train_part_24\\metadata.json\n",
      "moviesProcessed > MAX\n",
      "found metadata,  G:/deepfake\\dfdc_train_part_25\\dfdc_train_part_25\\metadata.json\n",
      "moviesProcessed > MAX\n",
      "found metadata,  G:/deepfake\\dfdc_train_part_26\\dfdc_train_part_26\\metadata.json\n",
      "moviesProcessed > MAX\n",
      "Processed originals 4  videos for train.\n"
     ]
    },
    {
     "name": "stderr",
     "output_type": "stream",
     "text": [
      "ffmpeg version git-2020-02-13-6d37ca8 Copyright (c) 2000-2020 the FFmpeg developers\n",
      "  built with gcc 9.2.1 (GCC) 20200122\n",
      "  configuration: --enable-gpl --enable-version3 --enable-sdl2 --enable-fontconfig --enable-gnutls --enable-iconv --enable-libass --enable-libdav1d --enable-libbluray --enable-libfreetype --enable-libmp3lame --enable-libopencore-amrnb --enable-libopencore-amrwb --enable-libopenjpeg --enable-libopus --enable-libshine --enable-libsnappy --enable-libsoxr --enable-libtheora --enable-libtwolame --enable-libvpx --enable-libwavpack --enable-libwebp --enable-libx264 --enable-libx265 --enable-libxml2 --enable-libzimg --enable-lzma --enable-zlib --enable-gmp --enable-libvidstab --enable-libvorbis --enable-libvo-amrwbenc --enable-libmysofa --enable-libspeex --enable-libxvid --enable-libaom --enable-libmfx --enable-ffnvcodec --enable-cuvid --enable-d3d11va --enable-nvenc --enable-nvdec --enable-dxva2 --enable-avisynth --enable-libopenmpt --enable-amf\n",
      "  libavutil      56. 41.100 / 56. 41.100\n",
      "  libavcodec     58. 68.102 / 58. 68.102\n",
      "  libavformat    58. 38.100 / 58. 38.100\n",
      "  libavdevice    58.  9.103 / 58.  9.103\n",
      "  libavfilter     7. 75.100 /  7. 75.100\n",
      "  libswscale      5.  6.100 /  5.  6.100\n",
      "  libswresample   3.  6.100 /  3.  6.100\n",
      "  libpostproc    55.  6.100 / 55.  6.100\n",
      "Input #0, mov,mp4,m4a,3gp,3g2,mj2, from 'G:/deepfake\\dfdc_train_part_01\\dfdc_train_part_1\\/ywauoonmlr.mp4':\n",
      "  Metadata:\n",
      "    major_brand     : isom\n",
      "    minor_version   : 512\n",
      "    compatible_brands: isomiso2avc1mp41\n",
      "    encoder         : Lavf57.71.100\n",
      "  Duration: 00:00:10.02, start: 0.000000, bitrate: 5196 kb/s\n",
      "    Stream #0:0(und): Video: h264 (High) (avc1 / 0x31637661), yuv420p, 1920x1080 [SAR 1:1 DAR 16:9], 5125 kb/s, 29.88 fps, 29.88 tbr, 298799 tbn, 59.76 tbc (default)\n",
      "    Metadata:\n",
      "      handler_name    : VideoHandler\n",
      "    Stream #0:1(und): Audio: aac (LC) (mp4a / 0x6134706D), 48000 Hz, mono, fltp, 69 kb/s (default)\n",
      "    Metadata:\n",
      "      handler_name    : SoundHandler\n",
      "Stream mapping:\n",
      "  Stream #0:0 -> #0:0 (h264 (native) -> mjpeg (native))\n",
      "Press [q] to stop, [?] for help\n",
      "[swscaler @ 0000018cb8ddd440] deprecated pixel format used, make sure you did set range correctly\n",
      "Output #0, image2, to 'test/REAL/ywauoonmlr%08d.jpg':\n",
      "  Metadata:\n",
      "    major_brand     : isom\n",
      "    minor_version   : 512\n",
      "    compatible_brands: isomiso2avc1mp41\n",
      "    encoder         : Lavf58.38.100\n",
      "    Stream #0:0(und): Video: mjpeg, yuvj420p(pc), 1920x1080 [SAR 1:1 DAR 16:9], q=2-31, 200 kb/s, 1 fps, 1 tbn, 1 tbc (default)\n",
      "    Metadata:\n",
      "      handler_name    : VideoHandler\n",
      "      encoder         : Lavc58.68.102 mjpeg\n",
      "    Side data:\n",
      "      cpb: bitrate max/min/avg: 0/0/200000 buffer size: 0 vbv_delay: N/A\n",
      "frame=    2 fps=0.0 q=4.5 size=N/A time=00:00:02.00 bitrate=N/A dup=0 drop=23 speed=3.96x    \n",
      "frame=    3 fps=2.9 q=2.3 size=N/A time=00:00:03.00 bitrate=N/A dup=0 drop=52 speed=2.92x    \n",
      "frame=    5 fps=3.2 q=2.6 size=N/A time=00:00:05.00 bitrate=N/A dup=0 drop=82 speed=3.24x    \n",
      "frame=    6 fps=2.9 q=4.7 size=N/A time=00:00:06.00 bitrate=N/A dup=0 drop=111 speed=2.93x    \n",
      "frame=    7 fps=2.7 q=7.2 size=N/A time=00:00:07.00 bitrate=N/A dup=0 drop=142 speed=2.73x    \n",
      "frame=    8 fps=2.6 q=9.9 size=N/A time=00:00:08.00 bitrate=N/A dup=0 drop=173 speed= 2.6x    \n",
      "frame=    9 fps=2.5 q=12.8 size=N/A time=00:00:09.00 bitrate=N/A dup=0 drop=204 speed=2.51x    \n",
      "frame=   10 fps=2.4 q=15.7 size=N/A time=00:00:10.00 bitrate=N/A dup=0 drop=233 speed=2.44x    \n",
      "frame=   11 fps=2.4 q=18.7 size=N/A time=00:00:11.00 bitrate=N/A dup=0 drop=266 speed=2.39x    \n",
      "frame=   12 fps=2.4 q=21.7 Lsize=N/A time=00:00:12.00 bitrate=N/A dup=0 drop=287 speed=2.45x    \n",
      "video:784kB audio:0kB subtitle:0kB other streams:0kB global headers:0kB muxing overhead: unknown\n"
     ]
    }
   ],
   "source": [
    "#ext_drive = 'G:/deepfake/**/'\n",
    "#metadataFiles = glob.glob('G:/deepfake/**/**/metadata.json')\n",
    "metadataFiles = glob.glob('movies/**/metadata.json')\n",
    "MAX_MOVIES=10\n",
    "\n",
    "moviesProcessed = 0\n",
    "testSamplingRate = 5  # every 5th movie, put into test, every sixth movie put into validation\n",
    "\n",
    "def processMetadataFile(metadataFile, moviesProcessed):\n",
    "    numRealMovies = 0\n",
    "    numFakeMovies = 0\n",
    "    originalsProcessed = 0\n",
    "\n",
    "    for metadata in metadataFile:\n",
    "        print(\"found metadata, \", metadata)\n",
    "        basepath=re.sub(r'(metadata.json$)', '', metadata)\n",
    "        with open(metadata) as f:        \n",
    "            data = json.load(f)\n",
    "            for key in data:\n",
    "                if moviesProcessed > MAX_MOVIES:\n",
    "                    print(\"moviesProcessed > MAX\")\n",
    "                    break\n",
    "                label = data[key]['label']\n",
    "                if moviesProcessed % testSamplingRate == 0:\n",
    "                    split = \"test\"\n",
    "                elif moviesProcessed % testSamplingRate == 1:\n",
    "                    split = \"validation\"\n",
    "                else:\n",
    "                    split = \"train\"\n",
    "                if label == \"FAKE\" and 2 * numFakeMovies > numRealMovies:\n",
    "                    print(\"Skipping because we need balanced fake and real videos\")\n",
    "                elif label == \"FAKE\":\n",
    "                    original = data[key]['original']\n",
    "                    processed = process_movie(basepath, key, label, split)\n",
    "                    moviesProcessed += processed\n",
    "                    numFakeMovies += processed\n",
    "\n",
    "                    processed = process_movie(basepath, original, \"REAL\", split)\n",
    "                    moviesProcessed += processed\n",
    "                    numRealMovies += processed\n",
    "                    originalsProcessed += processed\n",
    "\n",
    "                else:\n",
    "                    numRealMovies += 1\n",
    "                    processed = process_movie(basepath, key, label, split)\n",
    "\n",
    "                    moviesProcessed += processed\n",
    "    print(\"Processed originals\", originalsProcessed, \" videos for train.\")\n",
    "    return moviesProcessed\n",
    "      \n",
    "moviesProcessed += processMetadataFile(metadataFiles, moviesProcessed)\n",
    "    \n",
    "\n"
   ]
  },
  {
   "cell_type": "code",
   "execution_count": 6,
   "metadata": {},
   "outputs": [
    {
     "name": "stdout",
     "output_type": "stream",
     "text": [
      "Processed  12  videos for train.\n"
     ]
    }
   ],
   "source": [
    "print(\"Processed \", moviesProcessed, \" videos for train.\")"
   ]
  },
  {
   "cell_type": "code",
   "execution_count": 7,
   "metadata": {},
   "outputs": [],
   "source": [
    "from detect_face import crop_face_save_jpg"
   ]
  },
  {
   "cell_type": "code",
   "execution_count": 8,
   "metadata": {},
   "outputs": [],
   "source": [
    "trainImages = glob.glob('train/**/*.jpg')\n"
   ]
  },
  {
   "cell_type": "code",
   "execution_count": 9,
   "metadata": {},
   "outputs": [
    {
     "name": "stdout",
     "output_type": "stream",
     "text": [
      "train\\fake\\gshruegrcb00000001.jpg  did not have a face\n",
      "train\\fake\\gshruegrcb00000002.jpg  did not have a face\n",
      "train\\fake\\gshruegrcb00000003.jpg  did not have a face\n",
      "train\\fake\\gshruegrcb00000004.jpg  did not have a face\n",
      "train\\fake\\gshruegrcb00000005.jpg  did not have a face\n",
      "train\\fake\\gshruegrcb00000006.jpg  did not have a face\n",
      "train\\fake\\gshruegrcb00000007.jpg  did not have a face\n",
      "train\\fake\\gshruegrcb00000008.jpg  did not have a face\n",
      "train\\fake\\gshruegrcb00000009.jpg  did not have a face\n",
      "train\\real\\fmhiujydwo00000001.jpg  did not have a face\n",
      "train\\real\\fmhiujydwo00000004.jpg  did not have a face\n",
      "train\\real\\fmhiujydwo00000005.jpg  did not have a face\n",
      "train\\real\\fmhiujydwo00000006.jpg  did not have a face\n",
      "train\\real\\fmhiujydwo00000007.jpg  did not have a face\n",
      "train\\real\\fmhiujydwo00000008.jpg  did not have a face\n",
      "train\\real\\fmhiujydwo00000009.jpg  did not have a face\n",
      "train\\real\\fmhiujydwo00000011.jpg  did not have a face\n",
      "train\\real\\fmhiujydwo00000012.jpg  did not have a face\n",
      "train\\real\\ooafcxxfrs00000001.jpg  did not have a face\n",
      "train\\real\\ooafcxxfrs00000002.jpg  did not have a face\n",
      "train\\real\\ooafcxxfrs00000003.jpg  did not have a face\n",
      "train\\real\\ooafcxxfrs00000004.jpg  did not have a face\n",
      "train\\real\\ooafcxxfrs00000007.jpg  did not have a face\n",
      "train\\real\\ooafcxxfrs00000008.jpg  did not have a face\n",
      "train\\real\\ooafcxxfrs00000012.jpg  did not have a face\n",
      "train\\real\\orblnqzpra00000001.jpg  did not have a face\n",
      "train\\real\\orblnqzpra00000002.jpg  did not have a face\n",
      "train\\real\\orblnqzpra00000004.jpg  did not have a face\n",
      "train\\real\\orblnqzpra00000007.jpg  did not have a face\n",
      "train\\real\\orblnqzpra00000008.jpg  did not have a face\n",
      "train\\real\\orblnqzpra00000009.jpg  did not have a face\n",
      "train\\real\\orblnqzpra00000010.jpg  did not have a face\n",
      "train\\real\\orblnqzpra00000011.jpg  did not have a face\n",
      "train\\real\\orblnqzpra00000012.jpg  did not have a face\n",
      "train\\real\\yietrwuncf00000001.jpg  did not have a face\n",
      "train\\real\\yietrwuncf00000002.jpg  did not have a face\n",
      "train\\real\\yietrwuncf00000003.jpg  did not have a face\n",
      "train\\real\\yietrwuncf00000004.jpg  did not have a face\n",
      "train\\real\\yietrwuncf00000005.jpg  did not have a face\n",
      "train\\real\\yietrwuncf00000006.jpg  did not have a face\n",
      "train\\real\\yietrwuncf00000008.jpg  did not have a face\n",
      "train\\real\\yietrwuncf00000009.jpg  did not have a face\n",
      "train\\real\\yietrwuncf00000012.jpg  did not have a face\n"
     ]
    }
   ],
   "source": [
    "# Find the faces in each image, and crop it out\n",
    "# If the face can't be detected, then we remove the image from dataset\n",
    "for image in trainImages:\n",
    "    crop_face_save_jpg(image)"
   ]
  },
  {
   "cell_type": "code",
   "execution_count": 10,
   "metadata": {},
   "outputs": [
    {
     "name": "stdout",
     "output_type": "stream",
     "text": [
      "test\\fake\\zumqqvixhu00000001.jpg  did not have a face\n",
      "test\\fake\\zumqqvixhu00000002.jpg  did not have a face\n",
      "test\\fake\\zumqqvixhu00000003.jpg  did not have a face\n",
      "test\\fake\\zumqqvixhu00000005.jpg  did not have a face\n",
      "test\\fake\\zumqqvixhu00000006.jpg  did not have a face\n",
      "test\\fake\\zumqqvixhu00000007.jpg  did not have a face\n",
      "test\\fake\\zumqqvixhu00000008.jpg  did not have a face\n",
      "test\\fake\\zumqqvixhu00000009.jpg  did not have a face\n",
      "test\\fake\\zumqqvixhu00000010.jpg  did not have a face\n",
      "test\\fake\\zumqqvixhu00000011.jpg  did not have a face\n",
      "test\\fake\\zumqqvixhu00000012.jpg  did not have a face\n",
      "test\\real\\hntguogkqd00000001.jpg  did not have a face\n",
      "test\\real\\hntguogkqd00000002.jpg  did not have a face\n",
      "test\\real\\hntguogkqd00000003.jpg  did not have a face\n",
      "test\\real\\hntguogkqd00000005.jpg  did not have a face\n",
      "test\\real\\hntguogkqd00000006.jpg  did not have a face\n",
      "test\\real\\hntguogkqd00000007.jpg  did not have a face\n",
      "test\\real\\hntguogkqd00000008.jpg  did not have a face\n",
      "test\\real\\hntguogkqd00000009.jpg  did not have a face\n",
      "test\\real\\hntguogkqd00000010.jpg  did not have a face\n",
      "test\\real\\hntguogkqd00000011.jpg  did not have a face\n",
      "test\\real\\kvmpmhdxly00000006.jpg  did not have a face\n",
      "test\\real\\kvmpmhdxly00000007.jpg  did not have a face\n",
      "test\\real\\kvmpmhdxly00000008.jpg  did not have a face\n",
      "test\\real\\kvmpmhdxly00000009.jpg  did not have a face\n",
      "test\\real\\kvmpmhdxly00000010.jpg  did not have a face\n",
      "test\\real\\kvmpmhdxly00000011.jpg  did not have a face\n",
      "test\\real\\kvmpmhdxly00000012.jpg  did not have a face\n",
      "test\\real\\ywauoonmlr00000011.jpg  did not have a face\n"
     ]
    }
   ],
   "source": [
    "testImages = glob.glob('test/**/*.jpg')\n",
    "for image in testImages:\n",
    "    crop_face_save_jpg(image)"
   ]
  },
  {
   "cell_type": "code",
   "execution_count": 11,
   "metadata": {},
   "outputs": [
    {
     "name": "stdout",
     "output_type": "stream",
     "text": [
      "Finished preprocessing movies\n"
     ]
    }
   ],
   "source": [
    "print(\"Finished preprocessing movies\")"
   ]
  },
  {
   "cell_type": "code",
   "execution_count": 12,
   "metadata": {},
   "outputs": [
    {
     "name": "stderr",
     "output_type": "stream",
     "text": [
      "Using TensorFlow backend.\n"
     ]
    },
    {
     "name": "stdout",
     "output_type": "stream",
     "text": [
      "   0     1     2     3     4         5     6     7         8     9     ...  \\\n",
      "0   0.0   0.0   0.0   0.0   0.0  0.000000   0.0   0.0  0.000000   0.0  ...   \n",
      "1   0.0   0.0   0.0   0.0   0.0  0.509220   0.0   0.0  1.201362   0.0  ...   \n",
      "2   0.0   0.0   0.0   0.0   0.0  0.000000   0.0   0.0  1.668910   0.0  ...   \n",
      "3   0.0   0.0   0.0   0.0   0.0  0.526295   0.0   0.0  2.078585   0.0  ...   \n",
      "\n",
      "   4086      4087  4088      4089      4090  4091  4092  4093  4094      4095  \n",
      "0   0.0  0.000000   0.0  0.000000  0.000000   0.0   0.0   0.0   0.0  0.000000  \n",
      "1   0.0  0.210604   0.0  0.549762  1.273698   0.0   0.0   0.0   0.0  0.273202  \n",
      "2   0.0  0.570012   0.0  0.564549  1.078326   0.0   0.0   0.0   0.0  0.000000  \n",
      "3   0.0  0.369404   0.0  0.048695  0.647373   0.0   0.0   0.0   0.0  1.663213  \n",
      "\n",
      "[4 rows x 4096 columns]\n"
     ]
    }
   ],
   "source": [
    "import numpy as np\n",
    "from keras.preprocessing.image import load_img\n",
    "from keras.preprocessing.image import img_to_array\n",
    "from keras.applications.vgg16 import preprocess_input\n",
    "from keras.applications.vgg16 import decode_predictions\n",
    "from keras.applications.vgg16 import VGG16\n",
    "from keras.models import Model\n",
    "import pandas as pd\n",
    "from pickle import dump\n",
    "\n",
    "def extract_features(filepath):\n",
    "    # load model\n",
    "    model = VGG16()\n",
    "    # remove the output layer\n",
    "    model.layers.pop()\n",
    "    model = Model(inputs=model.inputs, outputs=model.layers[-1].output)\n",
    "    features = np.zeros((1, 4096))\n",
    "    filepath = os.path.join(filepath,'*.jpg')\n",
    "    faces = glob.glob(filepath)\n",
    "    for face in faces:\n",
    "        # load an image from file\n",
    "        image = load_img(face, target_size=(224, 224))\n",
    "        # convert the image pixels to a numpy array\n",
    "        image = img_to_array(image)\n",
    "        # reshape data for the model\n",
    "        image = image.reshape((1, image.shape[0], image.shape[1], image.shape[2]))\n",
    "        #print(image.shape)\n",
    "        #prepare the image for the VGG model\n",
    "        image = preprocess_input(image)\n",
    "        # get extracted features\n",
    "        features = np.append(features,  model.predict(image), axis = 0)\n",
    "        #print(features.shape)\n",
    "        # save to file\n",
    "        #dump(features, f)\n",
    "    #save to pd dataframe\n",
    "    return pd.DataFrame(features)\n",
    "train_fake_df = extract_features('train/fake/')\n",
    "train_real_df = extract_features('train/real/')\n",
    "test_real_df = extract_features('test/real/')\n",
    "test_fake_df = extract_features('test/fake/')\n",
    "print(train_fake_df)"
   ]
  },
  {
   "cell_type": "code",
   "execution_count": 17,
   "metadata": {},
   "outputs": [],
   "source": [
    "# write extracted features to disk\n",
    "train_fake_df.to_csv('train_fake.csv')\n",
    "train_real_df.to_csv('train_real.csv')\n",
    "test_fake_df.to_csv('test_fake.csv')\n",
    "test_real_df.to_csv('test_real.csv')"
   ]
  },
  {
   "cell_type": "code",
   "execution_count": 18,
   "metadata": {},
   "outputs": [],
   "source": [
    "#model = VGG16()"
   ]
  },
  {
   "cell_type": "code",
   "execution_count": 22,
   "metadata": {},
   "outputs": [
    {
     "name": "stdout",
     "output_type": "stream",
     "text": [
      "Model: \"vgg16\"\n",
      "_________________________________________________________________\n",
      "Layer (type)                 Output Shape              Param #   \n",
      "=================================================================\n",
      "input_5 (InputLayer)         (None, 224, 224, 3)       0         \n",
      "_________________________________________________________________\n",
      "block1_conv1 (Conv2D)        (None, 224, 224, 64)      1792      \n",
      "_________________________________________________________________\n",
      "block1_conv2 (Conv2D)        (None, 224, 224, 64)      36928     \n",
      "_________________________________________________________________\n",
      "block1_pool (MaxPooling2D)   (None, 112, 112, 64)      0         \n",
      "_________________________________________________________________\n",
      "block2_conv1 (Conv2D)        (None, 112, 112, 128)     73856     \n",
      "_________________________________________________________________\n",
      "block2_conv2 (Conv2D)        (None, 112, 112, 128)     147584    \n",
      "_________________________________________________________________\n",
      "block2_pool (MaxPooling2D)   (None, 56, 56, 128)       0         \n",
      "_________________________________________________________________\n",
      "block3_conv1 (Conv2D)        (None, 56, 56, 256)       295168    \n",
      "_________________________________________________________________\n",
      "block3_conv2 (Conv2D)        (None, 56, 56, 256)       590080    \n",
      "_________________________________________________________________\n",
      "block3_conv3 (Conv2D)        (None, 56, 56, 256)       590080    \n",
      "_________________________________________________________________\n",
      "block3_pool (MaxPooling2D)   (None, 28, 28, 256)       0         \n",
      "_________________________________________________________________\n",
      "block4_conv1 (Conv2D)        (None, 28, 28, 512)       1180160   \n",
      "_________________________________________________________________\n",
      "block4_conv2 (Conv2D)        (None, 28, 28, 512)       2359808   \n",
      "_________________________________________________________________\n",
      "block4_conv3 (Conv2D)        (None, 28, 28, 512)       2359808   \n",
      "_________________________________________________________________\n",
      "block4_pool (MaxPooling2D)   (None, 14, 14, 512)       0         \n",
      "_________________________________________________________________\n",
      "block5_conv1 (Conv2D)        (None, 14, 14, 512)       2359808   \n",
      "=================================================================\n",
      "Total params: 9,995,072\n",
      "Trainable params: 9,995,072\n",
      "Non-trainable params: 0\n",
      "_________________________________________________________________\n"
     ]
    }
   ],
   "source": [
    "#model.layers.pop()\n",
    "#model.layers.pop()\n",
    "#model.layers.pop()\n",
    "\n",
    "#model.summary()"
   ]
  },
  {
   "cell_type": "code",
   "execution_count": null,
   "metadata": {},
   "outputs": [],
   "source": []
  },
  {
   "cell_type": "code",
   "execution_count": null,
   "metadata": {},
   "outputs": [],
   "source": []
  }
 ],
 "metadata": {
  "kernelspec": {
   "display_name": "Python 3",
   "language": "python",
   "name": "python3"
  },
  "language_info": {
   "codemirror_mode": {
    "name": "ipython",
    "version": 3
   },
   "file_extension": ".py",
   "mimetype": "text/x-python",
   "name": "python",
   "nbconvert_exporter": "python",
   "pygments_lexer": "ipython3",
   "version": "3.7.6"
  }
 },
 "nbformat": 4,
 "nbformat_minor": 4
}
